HIERARCHY
ROOT Hips
{
	OFFSET	0.000000	0.000000	0.000000
	CHANNELS 6 Xposition Yposition Zposition Zrotation Xrotation Yrotation
	JOINT LeftHip
	{
		OFFSET	4.740440	-3.195970	-0.322709
		CHANNELS 3 Zrotation Xrotation Yrotation
		JOINT LeftKnee
		{
			OFFSET	-1.605680	-15.592300	1.005510
			CHANNELS 3 Zrotation Xrotation Yrotation
			JOINT LeftAnkle
			{
				OFFSET	-0.632401	-16.421000	-1.413730
				CHANNELS 3 Zrotation Xrotation Yrotation
				End Site
				{
					OFFSET	0.008423	-2.933000	-1.684880
				}
			}
		}
	}
	JOINT RightHip
	{
		OFFSET	-4.740440	-3.195970	-0.322709
		CHANNELS 3 Zrotation Xrotation Yrotation
		JOINT RightKnee
		{
			OFFSET	1.605680	-15.592300	1.005510
			CHANNELS 3 Zrotation Xrotation Yrotation
			JOINT RightAnkle
			{
				OFFSET	0.632401	-16.421000	-1.413730
				CHANNELS 3 Zrotation Xrotation Yrotation
				End Site
				{
					OFFSET	-0.008423	-2.933000	-1.684880
				}
			}
		}
	}
	JOINT Chest
	{
		OFFSET	0.000000	3.468200	0.078401
		CHANNELS 3 Zrotation Xrotation Yrotation
		JOINT LeftCollar
		{
			OFFSET	3.857650	15.070700	-0.011583
			CHANNELS 3 Zrotation Xrotation Yrotation
			JOINT LeftShoulder
			{
				OFFSET	3.979720	-1.940530	-0.165223
				CHANNELS 3 Zrotation Xrotation Yrotation
				JOINT LeftElbow
				{
					OFFSET	0.615844	-10.986600	-0.673886
					CHANNELS 3 Zrotation Xrotation Yrotation
					JOINT LeftWrist
					{
						OFFSET	0.826843	-10.854500	1.034220
						CHANNELS 3 Zrotation Xrotation Yrotation
						End Site
						{
							OFFSET	-1.679080	-8.456540	0.936217
						}
					}
				}
			}
		}
		JOINT RightCollar
		{
			OFFSET	-3.857650	15.070700	-0.011583
			CHANNELS 3 Zrotation Xrotation Yrotation
			JOINT RightShoulder
			{
				OFFSET	-3.979720	-1.940530	-0.165223
				CHANNELS 3 Zrotation Xrotation Yrotation
				JOINT RightElbow
				{
					OFFSET	-0.615845	-10.986600	-0.673886
					CHANNELS 3 Zrotation Xrotation Yrotation
					JOINT RightWrist
					{
						OFFSET	-0.826843	-10.854500	1.034220
						CHANNELS 3 Zrotation Xrotation Yrotation
						End Site
						{
							OFFSET	1.679080	-8.456540	0.936217
						}
					}
				}
			}
		}
		JOINT Neck
		{
			OFFSET	0.000000	15.101400	0.055730
			CHANNELS 3 Zrotation Xrotation Yrotation
			JOINT Head
			{
				OFFSET	0.000000	4.185120	1.488260
				CHANNELS 3 Zrotation Xrotation Yrotation
				End Site
				{
					OFFSET	0.000000	7.773420	-0.106016
				}
			}
		}
	}
}
MOTION
Frames:     12
Frame Time: 0.016667
-11.311765	36.925724	113.787781	-2.351151	-12.233795	2.148817	11.291822	-15.248073	3.602746	-8.193282	57.527077	13.081960	5.245667	-2.511205	6.434870	5.480899	0.793220	3.524045	8.153234	15.257405	2.626282	-9.218894	-4.983324	4.224235	3.376261	10.061373	-5.608736	-0.103070	1.559895	5.651371	5.402703	0.480059	2.923545	-4.915824	-12.045266	-8.607195	10.690467	5.593904	-19.741169	1.036431	0.708347	2.127141	-6.601629	0.270154	-2.491598	-2.191717	-11.515260	15.998140	-13.018436	-2.400471	19.325142	1.480458	5.866942	0.421456	1.873833	2.210691	4.869952	
-11.312288	36.896229	114.427292	-2.370144	-12.252906	1.753981	10.777137	-16.261913	4.144429	-5.543766	51.868454	12.264763	3.689617	-3.254596	5.253247	5.331689	1.639930	3.699633	8.570442	15.846792	2.685341	-9.443239	-6.037334	4.134884	3.478141	10.273555	-5.347113	-0.301608	1.727940	6.049276	5.128377	0.600027	2.974567	-4.999966	-12.536903	-8.585359	10.739398	5.499719	-19.526743	0.781116	0.470117	2.197132	-6.976049	0.278914	-2.370563	-2.020247	-12.393433	16.145506	-12.907725	-2.433134	19.380613	1.282776	5.955408	0.617430	1.932472	2.376320	5.104770	
-11.347998	36.816010	114.897301	-2.369699	-12.214622	1.622992	10.582694	-16.552605	4.398667	-4.709443	49.815250	12.125900	3.077329	-3.292960	4.837760	5.248930	1.853282	3.719574	9.046299	16.973959	2.677730	-9.890415	-7.253373	3.932428	3.472025	10.331186	-5.286183	-0.339334	1.864613	6.135763	5.026812	0.512331	2.999528	-5.006348	-12.683452	-8.526039	10.705495	5.546599	-19.566017	0.715228	0.403284	2.225430	-7.081074	0.255732	-2.309875	-1.966151	-12.704343	16.161602	-12.858908	-2.419825	19.429628	1.231504	5.960339	0.688979	1.947386	2.433057	5.234150	
-11.298291	36.791069	115.391975	-2.465876	-11.934932	1.202170	10.092085	-17.314236	5.186024	-2.664534	43.269840	11.908933	1.420373	-2.599457	3.992454	5.026479	2.305256	3.665455	9.402462	17.252079	3.102940	-9.974309	-7.835427	3.849252	3.547706	10.403358	-5.183595	-0.326799	1.825246	6.361220	4.747036	0.721922	3.071272	-5.193443	-13.234885	-8.434893	10.904777	5.671993	-19.754910	0.514913	0.213660	2.325523	-7.376493	0.190007	-2.252848	-1.782571	-13.610950	16.237112	-12.795013	-2.458486	19.465588	1.276866	6.030895	0.922476	1.855191	2.477148	5.721596	
-11.315207	36.726490	115.734505	-2.509250	-11.799405	1.048137	9.962821	-17.548309	5.375255	-2.258359	41.013977	11.897617	1.009810	-2.137727	3.877950	4.959790	2.411901	3.597251	9.743194	17.972698	3.216845	-10.286693	-8.631687	3.738672	3.553093	10.390342	-5.148972	-0.298032	1.979291	6.313949	4.653418	0.629099	3.200957	-5.545889	-13.533885	-8.458056	11.038175	5.837113	-19.761459	0.487705	0.175854	2.347571	-7.477548	0.147422	-2.240158	-1.723353	-13.920698	16.276159	-12.763234	-2.450788	19.418869	1.331624	6.073680	1.006259	1.824948	2.454982	5.925229	
-11.275079	36.659870	116.210724	-2.759780	-11.349185	0.581445	9.893277	-18.149651	5.671889	-1.734029	34.209877	11.773217	0.132802	-0.637493	3.320154	4.911442	2.542023	3.325563	10.056135	18.505775	3.960840	-10.469967	-9.256735	3.545931	3.738766	10.422514	-5.203516	-0.282921	1.781122	6.550687	4.484086	0.905403	3.231353	-5.569346	-14.176458	-8.279303	10.853045	5.751069	-19.714382	0.367051	-0.021571	2.458299	-7.737000	-0.002059	-2.203935	-1.570413	-14.775599	16.239576	-12.740778	-2.511018	19.323349	1.463370	6.107437	1.309377	1.771823	2.406527	6.640152	
-11.295474	36.574749	116.535263	-2.814951	-11.208540	0.413356	9.897839	-18.303801	5.706998	-1.715774	31.929632	11.659166	-0.154497	-0.059463	2.991389	4.870793	2.545625	3.253458	10.383827	19.371923	4.061820	-10.835736	-10.103140	3.400468	3.783092	10.638318	-5.428399	-0.246003	1.745462	6.630419	4.413615	0.827939	3.453475	-5.753950	-14.506530	-8.226169	10.596722	5.371125	-19.578377	0.329419	-0.251787	2.687168	-7.916597	0.014194	-2.332151	-1.513650	-15.318588	16.119602	-12.707766	-2.579513	19.290703	1.526090	5.960667	1.595613	1.722522	2.355303	6.931234	
-11.212136	36.500141	116.999519	-3.007180	-10.934401	-0.109447	10.165674	-18.574312	5.564763	-1.977640	25.277798	10.960526	-1.685682	2.310817	1.828840	4.582026	2.817898	2.980067	10.837612	19.994471	4.711487	-11.052897	-10.764182	3.278305	3.909073	10.756498	-5.391553	-0.213646	1.787277	6.711544	4.309161	1.227740	3.456232	-6.585582	-16.128798	-8.321780	10.886206	5.449381	-19.249197	0.232562	-0.203019	2.541886	-8.021937	-0.254441	-2.119648	-1.466302	-15.877466	16.005621	-12.706095	-2.624022	19.246002	2.011665	6.254702	1.761009	1.408838	2.119273	7.713029	
-11.162738	36.399956	117.349380	-3.090588	-10.897359	-0.297692	10.340261	-18.580616	5.443431	-1.971552	19.437191	9.166512	-2.088111	6.889410	2.986112	4.285874	2.943212	2.911270	11.453763	20.942921	4.707189	-11.388887	-11.687758	3.250015	3.965737	10.926881	-5.465135	-0.112070	2.056121	6.491815	4.153149	1.113416	3.791150	-7.153167	-17.090977	-8.571679	10.951813	5.017905	-18.670904	0.210565	-0.236213	2.560564	-8.077286	-0.333585	-2.128393	-1.453341	-16.139523	15.969406	-12.876802	-2.682280	18.974663	2.348695	6.493350	1.703637	1.134257	1.829006	8.162170	
-11.105027	36.292645	117.745956	-3.387725	-10.941562	-0.957762	10.935031	-18.350601	5.004658	-2.234125	16.122169	8.811022	-4.832198	6.403269	0.867471	4.147223	3.111141	3.375890	12.160889	21.975918	4.650578	-11.498671	-12.265545	3.105348	4.131469	11.664808	-5.674654	0.039391	1.904009	6.796610	4.094052	1.630810	3.735218	-7.856378	-18.897970	-8.594477	11.232986	4.508783	-17.907965	0.158326	-0.355474	2.573718	-8.189987	-0.482926	-2.114128	-1.429287	-16.985329	15.818028	-12.725304	-2.700717	19.290142	2.544043	6.276872	2.169477	1.223544	1.788239	8.992892	
-11.048342	36.182644	118.102669	-3.467418	-10.970551	-1.222464	11.136251	-18.256561	4.871760	-2.180114	13.396197	7.665337	-5.321416	7.635962	1.213344	3.798673	3.196192	3.422805	12.890618	23.141705	4.589174	-11.855601	-13.215715	3.012191	4.179596	11.950267	-5.719226	0.179291	2.185219	6.561839	3.940848	1.502543	4.082920	-8.643442	-20.184013	-9.052087	11.611896	4.020424	-17.077972	0.089956	-0.372846	2.572368	-8.217308	-0.303474	-2.416864	-1.269465	-17.548784	16.092752	-12.957142	-2.756955	19.058308	2.638632	6.263005	2.272299	1.207536	1.670167	9.309134	
-10.996853	36.103794	118.515709	-3.702138	-11.072365	-2.099988	11.589930	-17.997383	4.488332	-2.198154	11.206608	7.289933	-5.731095	6.037677	-0.868498	3.567850	3.258449	3.859699	13.580651	24.543997	4.576307	-11.950066	-13.544002	3.054672	4.352484	12.857800	-5.834773	0.246790	1.982677	6.936284	3.997888	2.042039	3.976045	-9.632211	-22.383141	-9.201540	12.076684	3.514576	-16.218569	-0.143407	-0.444021	2.552773	-8.125868	-0.608118	-2.170094	-1.374087	-18.320997	15.692244	-12.849015	-2.880972	19.425522	2.980258	6.218251	2.504488	1.006771	1.293928	10.349526	
